<svg id="visual" viewBox="0 0 900 600" width="900" height="600" xmlns="http://www.w3.org/2000/svg" xmlns:xlink="http://www.w3.org/1999/xlink" version="1.1"><g fill="#1c1c1c"><circle r="14" cx="335" cy="424"></circle><circle r="1" cx="481" cy="524"></circle><circle r="8" cx="237" cy="536"></circle><circle r="3" cx="259" cy="368"></circle><circle r="0" cx="134" cy="96"></circle><circle r="4" cx="363" cy="4"></circle><circle r="11" cx="846" cy="306"></circle><circle r="6" cx="819" cy="105"></circle><circle r="9" cx="568" cy="361"></circle><circle r="12" cx="525" cy="133"></circle><circle r="9" cx="569" cy="274"></circle><circle r="12" cx="69" cy="267"></circle><circle r="3" cx="239" cy="21"></circle><circle r="1" cx="205" cy="431"></circle><circle r="9" cx="784" cy="108"></circle><circle r="2" cx="186" cy="329"></circle><circle r="11" cx="249" cy="179"></circle><circle r="6" cx="541" cy="572"></circle><circle r="3" cx="365" cy="388"></circle><circle r="3" cx="812" cy="383"></circle><circle r="10" cx="377" cy="335"></circle><circle r="10" cx="170" cy="155"></circle><circle r="10" cx="893" cy="340"></circle><circle r="6" cx="409" cy="435"></circle><circle r="1" cx="250" cy="80"></circle><circle r="3" cx="847" cy="596"></circle><circle r="1" cx="861" cy="235"></circle><circle r="9" cx="20" cy="201"></circle><circle r="9" cx="275" cy="99"></circle><circle r="5" cx="725" cy="445"></circle><circle r="4" cx="610" cy="92"></circle><circle r="6" cx="271" cy="57"></circle><circle r="2" cx="191" cy="18"></circle><circle r="8" cx="156" cy="195"></circle><circle r="0" cx="212" cy="252"></circle><circle r="1" cx="496" cy="554"></circle></g></svg>